<svg width="24" height="24" viewBox="0 0 24 24" fill="none" xmlns="http://www.w3.org/2000/svg">
<path d="M11 2V7H9V2H11ZM7 3V7H5V3H7ZM15 3V7H13V3H15ZM2.927 8H21V13C21 14.0609 20.5786 15.0783 19.8284 15.8284C19.0783 16.5786 18.0609 17 17 17H16.067C15.5294 18.2384 14.6288 19.2844 13.484 20H20V22H3V20H6.506C5.63581 19.4574 4.90403 18.7195 4.36871 17.8448C3.83338 16.9702 3.50924 15.9828 3.422 14.961V14.954L2.927 8ZM16.575 15H17C17.5304 15 18.0391 14.7893 18.4142 14.4142C18.7893 14.0391 19 13.5304 19 13V10H16.932L16.579 14.954V14.961L16.575 15Z" fill="#6D6D6D"/>
</svg>
